<svg xmlns="http://www.w3.org/2000/svg" width="137" height="41" fill="none"><path d="M49.86 41l4.498-9.612-8.036-19.522h6.502L57.8 23.86l5.5-11.994h6.544L56.467 41H49.86zm-10.808-7.145V32.62c-1.47.723-3.1 1.085-4.754 1.085a10.89 10.89 0 0 1-10.893-10.867c0-5.997 4.88-10.867 10.893-10.867a11.11 11.11 0 0 1 4.754 1.085v-1.233h6.14v22h-6.14v.02zm-4.732-16.14a5.16 5.16 0 0 0-5.16 5.146c0 2.85 2.302 5.146 5.16 5.146s5.16-2.297 5.16-5.146-2.323-5.146-5.16-5.146zM23.512 6.338C21.466 3 17.927 1 14.005 1H0v32.855h8.633V23.18h5.372c5.073 0 9.507-3.424 10.765-8.315.235-.893.34-1.83.34-2.764a11.18 11.18 0 0 0-1.599-5.763zM12.897 21.48v-.17c0-.17.02-.34.02-.532 0-5.465-4.7-9.888-10.488-9.888h-.682L19.44 4.02l-6.544 17.46z" fill="#b40a0a"/><path d="M89.338 12.824h4.7V10.74c0-5.38-4.37-9.74-9.763-9.74H83.05c-5.393 0-9.763 4.36-9.763 9.74v13.355c0 5.38 4.37 9.74 9.763 9.74h1.215c5.393 0 9.763-4.36 9.763-9.74V22.03h-4.7v2.084a5.08 5.08 0 0 1-5.073 5.06H83.05c-2.814 0-5.073-2.275-5.073-5.06V10.74c0-2.807 2.28-5.06 5.073-5.06h1.215a5.08 5.08 0 0 1 5.073 5.06v2.084zm41.962 0h4.7V10.74c0-5.38-4.37-9.74-9.763-9.74h-1.215c-5.393 0-9.763 4.36-9.763 9.74v13.355c0 5.38 4.37 9.74 9.763 9.74h1.215c5.393 0 9.763-4.36 9.763-9.74V22.03h-4.7v2.084a5.08 5.08 0 0 1-5.073 5.06h-1.215c-2.814 0-5.074-2.275-5.074-5.06V10.74c0-2.807 2.28-5.06 5.074-5.06h1.215a5.08 5.08 0 0 1 5.073 5.06v2.084zM99.677 1c-1.833 0-2.75.872-2.75 2.637v27.56c0 1.765.917 2.637 2.75 2.637h13.855v-4.7h-11.916V19.48h8.4v-4.125h-8.4V5.7h11.916V1H99.677z" fill="#808285" stroke="#808285" stroke-width="1.344" stroke-miterlimit="10"/></svg>